<svg width="24" height="24" viewBox="0 0 24 24" fill="none" xmlns="http://www.w3.org/2000/svg">
<path d="M10.7051 4.7959C11.3994 4.03222 12.6006 4.03222 13.2949 4.7959L16.6123 8.44531C16.8172 8.67071 17.1661 8.68626 17.3906 8.48047L18.8906 7.10645C20.1171 5.98213 22.0722 7.04242 21.7988 8.68359L20.3105 17.6162C20.0092 19.4244 18.4445 20.75 16.6113 20.75H7.38867C5.55553 20.75 3.99082 19.4244 3.68945 17.6162L2.20117 8.68359C1.92782 7.04242 3.88285 5.98213 5.10938 7.10645L6.60938 8.48047C6.83395 8.68626 7.18279 8.67071 7.3877 8.44531L10.7051 4.7959Z" fill="url(#paint0_linear_23_123)" stroke="url(#paint1_linear_23_123)" stroke-width="0.5"/>
<path d="M15 12L12 15L9 12" stroke="#F8F8F9" stroke-width="2" stroke-linecap="round" stroke-linejoin="round"/>
<defs>
<linearGradient id="paint0_linear_23_123" x1="5.5" y1="5.5" x2="17.5" y2="21" gradientUnits="userSpaceOnUse">
<stop stop-color="#3F4042"/>
<stop offset="1" stop-color="#464748"/>
</linearGradient>
<linearGradient id="paint1_linear_23_123" x1="19.5" y1="6.5" x2="4.5" y2="19" gradientUnits="userSpaceOnUse">
<stop stop-color="#818181"/>
<stop offset="1" stop-color="#2E2F30"/>
</linearGradient>
</defs>
</svg>
