<svg width="74" height="42" viewBox="0 0 74 42" fill="none" xmlns="http://www.w3.org/2000/svg">
<g clip-path="url(#clip0_11_307)">
<path fill-rule="evenodd" clip-rule="evenodd" d="M65.0795 33.0361H68.4927C68.4927 32.5708 68.3362 32.2013 68.0225 31.9297C67.7088 31.658 67.2969 31.5221 66.7861 31.5221C66.2976 31.5221 65.8909 31.6534 65.5668 31.9146C65.242 32.1751 65.0795 32.5492 65.0795 33.0361ZM70.7782 32.011C70.9779 32.5012 71.0775 33.0302 71.0775 33.5972C71.0775 33.758 71.0722 33.8958 71.0611 34.0106C71.05 34.1274 71.0277 34.2981 70.9943 34.5238H65.1149C65.1149 34.764 65.147 34.9897 65.2105 35.2037C65.2747 35.417 65.3742 35.604 65.5098 35.7641C65.6454 35.9242 65.8274 36.0496 66.0553 36.1395C66.2832 36.2301 66.5609 36.276 66.8883 36.276C67.3539 36.276 67.7036 36.192 67.9374 36.0247C68.1699 35.8567 68.331 35.6506 68.42 35.4078H70.9779C70.9111 35.7937 70.7717 36.1552 70.5582 36.4912C70.3447 36.8272 70.069 37.1226 69.7311 37.3752C69.3932 37.6292 68.9885 37.8307 68.5176 37.979C68.0461 38.1286 67.5143 38.2021 66.921 38.2021C66.2092 38.2021 65.5786 38.0925 65.0291 37.8713C64.479 37.6502 64.0187 37.345 63.646 36.9546C63.2734 36.5628 62.9912 36.106 62.8013 35.5823C62.6107 35.0587 62.5157 34.4962 62.5157 33.8958C62.5157 33.2947 62.6074 32.7349 62.7928 32.2171C62.9781 31.6993 63.2538 31.2452 63.6212 30.8573C63.9879 30.4688 64.4378 30.1604 64.9708 29.9347C65.5039 29.7089 66.1142 29.596 66.8045 29.596C67.4646 29.596 68.0572 29.6984 68.5837 29.9018C69.1103 30.1053 69.5575 30.3868 69.9262 30.7412C70.2943 31.0969 70.5791 31.5195 70.7782 32.011Z" fill="white"/>
<path fill-rule="evenodd" clip-rule="evenodd" d="M19.2472 34.7056C19.1496 34.9596 19.0173 35.1781 18.849 35.3632C18.68 35.5476 18.4764 35.6959 18.2354 35.8101C17.9957 35.9223 17.7285 35.9787 17.4365 35.9787C17.1431 35.9787 16.8785 35.9223 16.6408 35.8101C16.4031 35.6959 16.2001 35.5476 16.0318 35.3632C15.8628 35.1781 15.7299 34.9569 15.6329 34.7017C15.5367 34.4457 15.4882 34.1767 15.4882 33.8958C15.4882 33.6142 15.5367 33.3504 15.6329 33.1024C15.7299 32.8537 15.8628 32.6332 16.0318 32.4402C16.2001 32.2473 16.4031 32.095 16.6408 31.9854C16.8785 31.8758 17.1431 31.8207 17.4365 31.8207C17.7344 31.8207 18.0029 31.8758 18.24 31.9854C18.477 32.095 18.68 32.2473 18.849 32.4402C19.0173 32.6332 19.1496 32.8537 19.2472 33.1024C19.3434 33.3504 19.3919 33.6142 19.3919 33.8958C19.3919 34.1819 19.3434 34.4516 19.2472 34.7056ZM19.3919 30.9853C19.1653 30.5896 18.8267 30.2608 18.3762 30.0009C17.9263 29.743 17.3945 29.6131 16.7816 29.6131C16.2315 29.6131 15.72 29.7227 15.2479 29.9438C14.7751 30.1637 14.3632 30.4636 14.0102 30.8403C13.6572 31.2189 13.3822 31.6685 13.1851 32.1922C12.9879 32.7158 12.8897 33.2835 12.8897 33.8958C12.8897 34.5074 12.9879 35.0751 13.1851 35.5987C13.3822 36.1224 13.6572 36.5746 14.0102 36.9546C14.3632 37.3345 14.7764 37.6344 15.2518 37.8549C15.7272 38.0761 16.2367 38.1857 16.7816 38.1857C17.4116 38.1857 17.9531 38.0538 18.4057 37.7893C18.8588 37.5242 19.1869 37.2052 19.3919 36.8299V37.9796H21.9911V29.8192H19.3919V30.9853Z" fill="white"/>
<path fill-rule="evenodd" clip-rule="evenodd" d="M54.9128 34.7133C54.8152 34.9614 54.6829 35.1812 54.514 35.3709C54.3457 35.5612 54.1394 35.7101 53.8958 35.8171C53.6522 35.9247 53.3889 35.9785 53.1067 35.9785C52.8074 35.9785 52.5396 35.9221 52.3012 35.8099C52.0635 35.6964 51.8591 35.5474 51.6902 35.363C51.5212 35.1779 51.389 34.9574 51.292 34.7008C51.1951 34.4449 51.1467 34.1765 51.1467 33.8956C51.1467 33.6252 51.1925 33.3634 51.2842 33.1094C51.3752 32.8561 51.5055 32.6336 51.6745 32.44C51.8428 32.2471 52.0504 32.0955 52.2973 31.9853C52.5435 31.875 52.8133 31.8199 53.1067 31.8199C53.4001 31.8199 53.6659 31.875 53.9036 31.9853C54.142 32.0955 54.3457 32.2471 54.514 32.44C54.6829 32.6336 54.8152 32.8541 54.9128 33.1015C55.0097 33.3496 55.0588 33.6141 55.0588 33.8956C55.0588 34.1929 55.0097 34.4659 54.9128 34.7133ZM55.0588 30.9851C54.8093 30.533 54.4544 30.1917 53.9953 29.9601C53.5363 29.7284 53.0176 29.6136 52.442 29.6136C51.8716 29.6136 51.349 29.7232 50.8723 29.943C50.3962 30.1642 49.9856 30.4628 49.6391 30.8408C49.2934 31.2181 49.0255 31.665 48.8343 32.1834C48.6431 32.7019 48.5475 33.2669 48.5475 33.8792C48.5475 34.4902 48.6457 35.0526 48.8428 35.5651C49.0386 36.0776 49.3124 36.5213 49.6647 36.896C50.0157 37.2707 50.4315 37.5588 50.9102 37.7609C51.389 37.9611 51.905 38.0621 52.459 38.0621C53.1008 38.0621 53.641 37.9381 54.0791 37.69C54.5159 37.442 54.8427 37.1447 55.0588 36.7969V38.072C55.0588 38.7348 54.8742 39.2165 54.5061 39.5144C54.1381 39.813 53.6712 39.9633 53.1067 39.9633C52.4918 39.9633 52.0399 39.8274 51.7485 39.5551C51.4577 39.2828 51.2907 38.9664 51.2462 38.6075H48.647C48.6693 39.0596 48.7597 39.4849 48.9168 39.8845C49.0747 40.2842 49.3294 40.6314 49.6811 40.9267C50.0321 41.2213 50.4944 41.4549 51.0681 41.6295C51.6411 41.8028 52.3477 41.8894 53.1898 41.8894C54.6954 41.8894 55.8172 41.5796 56.5532 40.9595C57.2893 40.3393 57.6573 39.3294 57.6573 37.9289V29.819H55.0588V30.9851Z" fill="white"/>
<path fill-rule="evenodd" clip-rule="evenodd" d="M8.37117 35.1869C7.86168 35.5892 7.2055 35.79 6.40329 35.79C5.85451 35.79 5.36074 35.6922 4.92002 35.4927C4.4806 35.2945 4.10405 35.0261 3.79103 34.6868C3.47866 34.3489 3.23308 33.9492 3.05627 33.4918C2.8788 33.0344 2.79039 32.5468 2.79039 32.029C2.79039 31.5434 2.87094 31.0729 3.03138 30.6148C3.19182 30.1574 3.4243 29.7578 3.72881 29.4119C4.03333 29.068 4.40857 28.7924 4.85388 28.585C5.29984 28.379 5.8054 28.2753 6.36989 28.2753C6.80735 28.2753 7.19896 28.337 7.54473 28.461C7.89115 28.585 8.19501 28.7563 8.45827 28.9742C8.72152 29.1914 8.93174 29.4487 9.0889 29.7427C9.24738 30.0373 9.35936 30.3589 9.42616 30.7054H12.2997C12.2224 30.0334 12.0286 29.3968 11.7221 28.7963C11.415 28.1965 11.0064 27.6735 10.4969 27.2292C9.98738 26.7863 9.38425 26.4371 8.68682 26.1838C7.98938 25.9312 7.20289 25.8038 6.32798 25.8038C5.30901 25.8038 4.40595 25.9745 3.61683 26.3157C2.82837 26.6576 2.16696 27.117 1.63127 27.6925C1.09559 28.2687 0.689575 28.9322 0.413876 29.6849C0.137522 30.437 0 31.2179 0 32.029C0 32.8658 0.143416 33.6605 0.430903 34.4093C0.717735 35.1594 1.13619 35.8195 1.68497 36.3898C2.23375 36.9608 2.90303 37.4155 3.69214 37.7542C4.4806 38.0928 5.37319 38.2628 6.36989 38.2628C7.19503 38.2628 7.95009 38.144 8.63639 37.9077C9.32335 37.6702 9.91862 37.3414 10.4229 36.9233C10.9258 36.504 11.3397 36.0217 11.6638 35.4763C11.988 34.9303 12.2054 34.341 12.3167 33.7071H9.39276C9.22119 34.2911 8.88066 34.7846 8.37117 35.1869Z" fill="white"/>
<path fill-rule="evenodd" clip-rule="evenodd" d="M41.7672 33.0361C41.7672 32.5492 41.9302 32.1751 42.2544 31.9146C42.5786 31.6534 42.9859 31.5221 43.4744 31.5221C43.9846 31.5221 44.3965 31.658 44.7101 31.9297C45.0232 32.2013 45.1803 32.5708 45.1803 33.0361H41.7672ZM46.6138 30.7412C46.2452 30.3868 45.7972 30.1059 45.2714 29.9018C44.7449 29.6984 44.1515 29.596 43.4927 29.596C42.8025 29.596 42.1909 29.7089 41.6585 29.9347C41.1254 30.1604 40.6755 30.4688 40.3081 30.8573C39.9421 31.2452 39.6651 31.6993 39.481 32.2171C39.2957 32.7349 39.2034 33.2947 39.2034 33.8958C39.2034 34.4962 39.299 35.0587 39.4889 35.5823C39.6795 36.106 39.961 36.5628 40.3337 36.9546C40.7063 37.345 41.1673 37.6508 41.7167 37.8713C42.2662 38.0925 42.8968 38.2021 43.6093 38.2021C44.2026 38.2021 44.7344 38.1286 45.2052 37.979C45.6754 37.8307 46.0808 37.6292 46.4194 37.3752C46.7566 37.1226 47.0323 36.8272 47.2458 36.4912C47.4593 36.1552 47.5994 35.7937 47.6656 35.4078H45.1077C45.0186 35.6506 44.8575 35.8567 44.625 36.0247C44.3919 36.192 44.0415 36.276 43.5753 36.276C43.2485 36.276 42.9708 36.2307 42.7436 36.1395C42.5157 36.0502 42.3336 35.9242 42.1981 35.7641C42.0619 35.604 41.9623 35.417 41.8988 35.2037C41.8346 34.9897 41.8025 34.764 41.8025 34.5238H47.6819C47.7153 34.2981 47.7376 34.1274 47.7487 34.0106C47.7599 33.8958 47.7651 33.758 47.7651 33.5972C47.7651 33.0302 47.6656 32.5012 47.4665 32.011C47.2661 31.5195 46.9825 31.0969 46.6138 30.7412Z" fill="white"/>
<mask id="mask0_11_307" style="mask-type:luminance" maskUnits="userSpaceOnUse" x="0" y="0" width="74" height="42">
<path d="M0 41.8894H73.8952V0.000301361H0V41.8894Z" fill="white"/>
</mask>
<g mask="url(#mask0_11_307)">
<path fill-rule="evenodd" clip-rule="evenodd" d="M58.961 37.98H61.5602V29.8189H58.961V37.98Z" fill="white"/>
</g>
<mask id="mask1_11_307" style="mask-type:luminance" maskUnits="userSpaceOnUse" x="0" y="0" width="74" height="42">
<path d="M0 41.8894H73.8952V0.000301361H0V41.8894Z" fill="white"/>
</mask>
<g mask="url(#mask1_11_307)">
<path fill-rule="evenodd" clip-rule="evenodd" d="M26.8012 30.1214C26.3533 30.4161 26.0317 30.7567 25.8379 31.1432V29.8195H23.2387V37.98H25.8379V34.7965C25.8379 33.7931 26.054 33.0857 26.4862 32.6723C26.9171 32.2588 27.5019 32.0515 28.2386 32.0515C28.3984 32.0515 28.5412 32.0613 28.6656 32.0803C28.7907 32.1007 28.9439 32.1315 29.1266 32.1755V29.8195C28.9112 29.7257 28.6617 29.6791 28.3794 29.6791C27.7756 29.6791 27.2498 29.8268 26.8012 30.1214Z" fill="white"/>
</g>
<mask id="mask2_11_307" style="mask-type:luminance" maskUnits="userSpaceOnUse" x="0" y="0" width="74" height="42">
<path d="M0 41.8894H73.8952V0.000301361H0V41.8894Z" fill="white"/>
</mask>
<g mask="url(#mask2_11_307)">
<path fill-rule="evenodd" clip-rule="evenodd" d="M61.4333 25.9385C61.2781 25.7922 61.1 25.678 60.8983 25.5946C60.6959 25.5126 60.4759 25.4706 60.2375 25.4706C59.7614 25.4706 59.3639 25.6281 59.0456 25.9424C58.7274 26.2568 58.5682 26.6446 58.5682 27.1073C58.5682 27.3343 58.6101 27.5463 58.6972 27.7445C58.7824 27.9427 58.9022 28.1179 59.0541 28.2695C59.2061 28.4211 59.3816 28.5399 59.5807 28.6252C59.7804 28.7105 59.9998 28.7532 60.2375 28.7532C60.4759 28.7532 60.6959 28.7105 60.8983 28.6252C61.1 28.5399 61.2781 28.4211 61.4333 28.2695C61.5885 28.1179 61.707 27.9427 61.7902 27.7445C61.8734 27.5463 61.9153 27.3343 61.9153 27.1073C61.9153 26.8815 61.8734 26.6669 61.7902 26.4628C61.707 26.2594 61.5885 26.0842 61.4333 25.9385Z" fill="white"/>
</g>
<mask id="mask3_11_307" style="mask-type:luminance" maskUnits="userSpaceOnUse" x="0" y="0" width="74" height="42">
<path d="M0 41.8894H73.8952V0.000301361H0V41.8894Z" fill="white"/>
</mask>
<g mask="url(#mask3_11_307)">
<path fill-rule="evenodd" clip-rule="evenodd" d="M37.609 30.547C37.3818 30.2773 37.0851 30.0542 36.7197 29.8776C36.3543 29.7018 35.8893 29.6132 35.3248 29.6132C34.6772 29.6132 34.1205 29.7346 33.6556 29.9767C33.1906 30.2189 32.8448 30.5608 32.6176 31.0018V29.8199H30.0184V37.9797H32.6176V33.8788C32.6176 33.2501 32.7486 32.75 33.0118 32.378C33.2744 32.0072 33.6778 31.8201 34.2207 31.8201C34.7518 31.8201 35.1231 32.0072 35.3333 32.378C35.5435 32.75 35.649 33.2232 35.649 33.7961V37.9797H38.2481V33.1346C38.2481 32.5512 38.2069 32.0511 38.1231 31.6384C38.0406 31.2249 37.869 30.8614 37.609 30.547Z" fill="white"/>
</g>
<mask id="mask4_11_307" style="mask-type:luminance" maskUnits="userSpaceOnUse" x="0" y="0" width="74" height="42">
<path d="M0 41.8894H73.8952V0.000301361H0V41.8894Z" fill="white"/>
</mask>
<g mask="url(#mask4_11_307)">
<path fill-rule="evenodd" clip-rule="evenodd" d="M27.8183 22.9027C27.9152 22.6546 28.0475 22.4341 28.2158 22.2412C28.3847 22.0489 28.5871 21.896 28.8248 21.7864C29.0625 21.6755 29.3277 21.621 29.6205 21.621C29.9191 21.621 30.1869 21.6755 30.424 21.7864C30.6617 21.896 30.8654 22.0489 31.0337 22.2412C31.202 22.4341 31.3343 22.6546 31.4318 22.9027C31.5281 23.1501 31.5766 23.4152 31.5766 23.6968C31.5766 23.9829 31.5281 24.2533 31.4318 24.5066C31.3343 24.7599 31.202 24.9791 31.0337 25.1635C30.8654 25.3479 30.6604 25.4969 30.4207 25.6104C30.1797 25.7226 29.9139 25.7797 29.6205 25.7797C29.3277 25.7797 29.0625 25.7226 28.8248 25.6104C28.5871 25.4969 28.3847 25.3479 28.2158 25.1635C28.0475 24.9791 27.9152 24.7586 27.8183 24.5026C27.7214 24.246 27.6736 23.977 27.6736 23.6968C27.6736 23.4152 27.7214 23.1501 27.8183 22.9027ZM26.1949 26.7555C26.5478 27.1355 26.9617 27.4354 27.4365 27.6566C27.9119 27.8764 28.4221 27.9867 28.9656 27.9867C29.5956 27.9867 30.1372 27.8548 30.5903 27.5896C31.0428 27.3252 31.3716 27.0056 31.5766 26.6309V27.7806H34.1751V19.6201H31.5766V20.7856C31.35 20.3893 31.0114 20.0611 30.5615 19.8013C30.111 19.5434 29.5792 19.4134 28.9656 19.4134C28.4155 19.4134 27.9047 19.5243 27.4326 19.7448C26.9604 19.964 26.5478 20.2639 26.1949 20.6413C25.8419 21.0193 25.5668 21.4695 25.3697 21.9931C25.172 22.5168 25.0737 23.0845 25.0737 23.6968C25.0737 24.3084 25.172 24.876 25.3697 25.3991C25.5668 25.9228 25.8419 26.3749 26.1949 26.7555Z" fill="white"/>
</g>
<mask id="mask5_11_307" style="mask-type:luminance" maskUnits="userSpaceOnUse" x="0" y="0" width="74" height="42">
<path d="M0 41.8894H73.8952V0.000301361H0V41.8894Z" fill="white"/>
</mask>
<g mask="url(#mask5_11_307)">
<path fill-rule="evenodd" clip-rule="evenodd" d="M35.4231 27.7799H38.0223V15.9248H35.4231V27.7799Z" fill="white"/>
</g>
<mask id="mask6_11_307" style="mask-type:luminance" maskUnits="userSpaceOnUse" x="0" y="0" width="74" height="42">
<path d="M0 41.8894H73.8952V0.000301361H0V41.8894Z" fill="white"/>
</mask>
<g mask="url(#mask6_11_307)">
<path fill-rule="evenodd" clip-rule="evenodd" d="M21.4976 23.1911C21.3398 23.6157 21.1092 23.995 20.8087 24.3284C20.5061 24.6617 20.1368 24.9262 19.7 25.1218C19.2619 25.3173 18.7674 25.4151 18.2134 25.4151H16.7347V18.3053H18.2134C18.772 18.3053 19.2691 18.4044 19.7039 18.6032C20.1387 18.8014 20.5061 19.0672 20.8087 19.4012C21.1092 19.734 21.3398 20.1146 21.4976 20.5418C21.6554 20.9684 21.7346 21.408 21.7346 21.8602C21.7346 22.3235 21.6554 22.7671 21.4976 23.1911ZM24.525 21.8602C24.525 21.1049 24.3862 20.3718 24.1105 19.6605C23.8341 18.9497 23.4321 18.3171 22.9036 17.7639C22.3758 17.2107 21.7301 16.7664 20.9678 16.4324C20.2049 16.099 19.3313 15.9323 18.3477 15.9323H13.9784V27.7875H18.3477C19.3313 27.7875 20.2075 27.6214 20.9757 27.288C21.7438 26.9547 22.3921 26.511 22.92 25.9565C23.4478 25.4026 23.8472 24.77 24.119 24.0586C24.3895 23.3479 24.525 22.6149 24.525 21.8602Z" fill="white"/>
</g>
<mask id="mask7_11_307" style="mask-type:luminance" maskUnits="userSpaceOnUse" x="0" y="0" width="74" height="42">
<path d="M0 41.8894H73.8952V0.000301361H0V41.8894Z" fill="white"/>
</mask>
<g mask="url(#mask7_11_307)">
<path fill-rule="evenodd" clip-rule="evenodd" d="M42.0636 21.7152C42.389 21.454 42.7951 21.3228 43.2836 21.3228C43.7937 21.3228 44.2063 21.4593 44.5193 21.7296C44.833 22.002 44.9902 22.3708 44.9902 22.8367H41.577C41.577 22.3498 41.7394 21.9757 42.0636 21.7152ZM40.1081 26.7552C40.4808 27.147 40.9418 27.4521 41.4912 27.672C42.0407 27.8931 42.6713 28.0034 43.3831 28.0034C43.9764 28.0034 44.5089 27.9292 44.9797 27.7803C45.4499 27.6313 45.8553 27.4298 46.1932 27.1765C46.5311 26.9232 46.8061 26.6279 47.0203 26.2919C47.2338 25.9559 47.3732 25.5943 47.44 25.2091H44.8815C44.7931 25.4525 44.632 25.6579 44.3988 25.8253C44.1657 25.9933 43.816 26.0766 43.3497 26.0766C43.023 26.0766 42.7453 26.032 42.5174 25.9408C42.2902 25.8502 42.1081 25.7249 41.9726 25.5654C41.8363 25.4046 41.7368 25.2183 41.6733 25.0043C41.6091 24.791 41.577 24.5646 41.577 24.3244H47.4564C47.4898 24.098 47.5121 23.9274 47.5232 23.8119C47.5337 23.6964 47.5396 23.5579 47.5396 23.3978C47.5396 22.8308 47.44 22.3012 47.2403 21.811C47.0406 21.3208 46.757 20.8982 46.3883 20.5425C46.0196 20.1868 45.5724 19.9066 45.0452 19.7025C44.5193 19.499 43.926 19.3973 43.2666 19.3973C42.577 19.3973 41.9653 19.5102 41.4329 19.7359C40.8999 19.9617 40.45 20.2695 40.0826 20.658C39.7159 21.0458 39.4395 21.4999 39.2549 22.0177C39.0695 22.5355 38.9778 23.0959 38.9778 23.6964C38.9778 24.2969 39.0728 24.8593 39.2634 25.383C39.4539 25.906 39.7355 26.3634 40.1081 26.7552Z" fill="white"/>
</g>
<mask id="mask8_11_307" style="mask-type:luminance" maskUnits="userSpaceOnUse" x="0" y="0" width="74" height="42">
<path d="M0 41.8894H73.8952V0.000301361H0V41.8894Z" fill="white"/>
</mask>
<g mask="url(#mask8_11_307)">
<path fill-rule="evenodd" clip-rule="evenodd" d="M12.2652 6.98158C12.2652 6.01755 13.0451 5.23661 14.0071 5.23661V-0.000267029H13.9168C10.4499 -0.000267029 7.57504 2.53811 7.04001 5.8607C6.50433 2.53811 3.62946 -0.000267029 0.162593 -0.000267029H0.072876V5.23661C1.03488 5.23661 1.81417 6.01755 1.81417 6.98158C1.81417 7.94626 1.03488 8.7272 0.072876 8.7272V13.9641H0.162593C3.62946 13.9641 6.50433 11.4257 7.04001 8.10245C7.57504 11.4257 10.4499 13.9641 13.9168 13.9641H14.0071V8.7272C13.0451 8.7272 12.2652 7.94626 12.2652 6.98158Z" fill="white"/>
</g>
<mask id="mask9_11_307" style="mask-type:luminance" maskUnits="userSpaceOnUse" x="0" y="0" width="74" height="42">
<path d="M0 41.8894H73.8952V0.000301361H0V41.8894Z" fill="white"/>
</mask>
<g mask="url(#mask9_11_307)">
<path fill-rule="evenodd" clip-rule="evenodd" d="M71.9531 36.7596H71.5123V36.65H72.5143V36.7596H72.0749V37.9546H71.9531V36.7596Z" fill="white"/>
</g>
<mask id="mask10_11_307" style="mask-type:luminance" maskUnits="userSpaceOnUse" x="0" y="0" width="74" height="42">
<path d="M0 41.8894H73.8952V0.000301361H0V41.8894Z" fill="white"/>
</mask>
<g mask="url(#mask10_11_307)">
<path fill-rule="evenodd" clip-rule="evenodd" d="M72.6658 36.65H72.8315L73.2814 37.7886H73.2853L73.7241 36.65H73.895V37.9546H73.7771V36.8187H73.7732C73.7732 36.8187 73.7385 36.9217 73.711 36.9952L73.3345 37.9546H73.2271L72.8459 36.9952C72.8191 36.9282 72.7824 36.8187 72.7824 36.8187H72.7791V37.9546H72.6658V36.65Z" fill="white"/>
</g>
</g>
<defs>
<clipPath id="clip0_11_307">
<rect width="74" height="42" fill="white"/>
</clipPath>
</defs>
</svg>
