<svg width="28" height="28" viewBox="0 0 28 28" fill="none" xmlns="http://www.w3.org/2000/svg">
<path fill-rule="evenodd" clip-rule="evenodd" d="M10.5 3.50001C11.9373 3.50001 13.2242 4.14983 14.0793 5.17301C15.0187 4.10752 16.3712 3.49798 17.7917 3.50001H18.6667C20.9218 3.50001 22.75 5.32818 22.75 7.58334V8.16669H23.3333C23.9522 8.16667 24.5457 8.41251 24.9832 8.85009C25.4208 9.28768 25.6667 9.88117 25.6667 10.5V12.8333C25.6672 13.8987 24.9461 14.8291 23.9143 15.0943C23.9167 15.1177 23.9167 15.141 23.9167 15.1667V22.1667C23.9167 22.7855 23.6708 23.379 23.2332 23.8166C22.7957 24.2542 22.2022 24.5 21.5833 24.5H6.41667C5.79782 24.5 5.20433 24.2542 4.76674 23.8166C4.32915 23.379 4.08331 22.7855 4.08331 22.1667V15.1667L4.08567 15.0943C3.05389 14.8291 2.33278 13.8987 2.33331 12.8333V10.5C2.33331 9.88117 2.57915 9.28768 3.01674 8.85009C3.45433 8.41251 4.04782 8.16667 4.66667 8.16669H5.24998V7.58334C5.24998 5.32818 7.07816 3.50001 9.33331 3.50001H10.5ZM12.8333 15.1667H6.41667V22.1667H12.8333V15.1667ZM21.5833 15.1667H15.1667V22.1667H21.5833V15.1667ZM5.87299 10.5H4.66667V12.8333H12.8333V10.5L5.87531 10.5012L5.87299 10.5ZM23.3333 10.5H22.1258V10.5012L15.1666 10.5V12.8333H23.3333V10.5ZM10.5 5.83333H9.33331C8.43193 5.83338 7.67802 6.51811 7.59149 7.41533L7.58331 7.58333V8.16669H12.8333L12.8275 7.99169C12.7412 6.84009 11.8255 5.92487 10.6738 5.83919L10.5 5.83333ZM18.6667 5.83333H17.7917C16.4791 5.83288 15.3679 6.80204 15.19 8.10251L15.1842 8.16669H20.4167V7.58333C20.4167 6.68195 19.7319 5.92804 18.8347 5.84151L18.6667 5.83333Z" fill="#878A90"/>
</svg>
