<svg width="28" height="28" viewBox="0 0 28 28" fill="none" xmlns="http://www.w3.org/2000/svg">
<path fill-rule="evenodd" clip-rule="evenodd" d="M14 3.5C19.8042 3.5 24.5 8.20867 24.5 14C24.5 15.1457 24.3168 16.2482 23.9773 17.2807L23.9563 17.2585C23.6218 16.8638 23.4012 16.3855 23.3182 15.8748C23.1882 15.2005 22.7638 14.6194 22.1608 14.2905L22.162 14.2788L22.1667 14C22.167 10.4636 19.8914 7.32872 16.529 6.23326C13.1665 5.1378 9.48104 6.33063 7.39812 9.1885C5.3152 12.0464 5.30802 15.9201 7.38033 18.7857C7.67433 19.1905 7.6895 19.754 7.41767 20.1775C7.21879 20.5099 7.04072 20.8544 6.8845 21.2088L6.7865 21.4223L6.45983 22.1667L7.973 21.2695L8.18767 21.1295L8.3895 20.9755L8.51317 20.8857C8.85113 20.6732 9.28159 20.676 9.61683 20.8927C10.926 21.7277 12.4472 22.1698 14 22.1667C14.7941 22.1673 15.5841 22.0522 16.345 21.8248C16.5958 21.9765 16.8782 22.0815 17.1815 22.1328C17.332 22.1597 17.4813 22.1725 17.6272 22.169L17.8453 22.155L18.0472 22.3732C18.3085 22.6788 18.4998 23.0253 18.6282 23.4267C17.192 24.1348 15.6118 24.5021 14.0105 24.5C12.5652 24.5055 11.1346 24.2091 9.8105 23.6297L9.41617 23.4465L9.12567 23.2983L7.644 24.1768C5.7015 25.3225 3.42417 23.3182 4.3155 21.245C4.53367 20.7375 4.72733 20.3058 4.90117 19.943L5.00267 19.733L5.09133 19.558L5.033 19.4647C4.17471 18.0594 3.66064 16.4712 3.53267 14.8295L3.50817 14.4153L3.5 14C3.5 8.20867 8.19583 3.5 14 3.5ZM19.0458 21.021C19.6082 21.5892 20.2883 21.9333 21.0408 22.148L21.3255 22.2227C21.8622 22.3207 22.1422 22.813 22.1667 23.3135C22.1667 23.9027 21.7385 24.4043 21.1552 24.4907C20.5928 24.5642 20.0083 24.2083 19.8858 23.6448C19.7155 22.7745 19.3492 22.015 18.7157 21.378C18.6422 21.3045 18.6912 21.1447 18.6667 21.021L18.9257 21.0012C18.9805 20.9977 19.026 21.0035 19.0458 21.021ZM24.6027 18.6737C25.214 18.7448 25.6667 19.222 25.6667 19.8182C25.6667 20.3898 25.3108 20.8565 24.7252 20.9615C24.0219 21.0803 23.3632 21.3852 22.8177 21.8447L22.6217 22.0232C22.4992 22.1433 22.3148 22.2507 22.1923 22.071C22.1433 21.9753 22.1678 21.749 22.2413 21.6778C22.8177 21.1097 23.198 20.3805 23.3298 19.5918C23.4516 19.0024 24.0037 18.6038 24.6015 18.6737H24.6027ZM19.8333 17.5035H19.8322C19.8077 17.6283 19.8567 17.8138 19.782 17.8873C19.1637 18.5057 18.8312 19.2488 18.6573 20.1028C18.5436 20.6996 17.969 21.0923 17.3717 20.9813C16.7819 20.8837 16.3455 20.3796 16.3333 19.782C16.3333 19.2605 16.716 18.7787 17.2352 18.6795C18.0721 18.5428 18.8459 18.1494 19.4495 17.5537C19.523 17.479 19.7097 17.5035 19.8333 17.5035ZM21.0175 15.1667C21.5577 15.1667 22.0593 15.5202 22.169 16.0767C22.3059 16.8995 22.6957 17.6592 23.2843 18.2502C23.3578 18.3237 23.3088 18.5302 23.3333 18.6515L23.0603 18.6667C23.0055 18.6667 22.9588 18.655 22.9297 18.6282C22.316 17.9947 21.5565 17.668 20.713 17.486C20.1482 17.357 19.772 16.8222 19.8415 16.247C19.9278 15.6403 20.4062 15.1912 21.0175 15.1667Z" fill="#878A90"/>
</svg>
