<svg width="28" height="28" viewBox="0 0 28 28" fill="none" xmlns="http://www.w3.org/2000/svg">
<path fill-rule="evenodd" clip-rule="evenodd" d="M15.2518 3.5C15.9377 3.5 16.5888 3.8016 17.0322 4.32482L18.3097 5.83333H22.1667C22.7855 5.83333 23.379 6.07916 23.8166 6.51675C24.2542 6.95434 24.5 7.54784 24.5 8.16667V18.6667C24.5 19.2855 24.2542 19.879 23.8166 20.3166C23.379 20.7542 22.7855 21 22.1667 21H12.6327C12.0139 20.9999 11.4205 20.7539 10.983 20.3163L9.33335 18.6667H5.83335V23.3333C5.83335 23.9777 5.31101 24.5 4.66667 24.5C4.02234 24.5 3.5 23.9777 3.5 23.3333V5.83333C3.5 4.54466 4.54466 3.5 5.83333 3.5H15.2518ZM15.2518 5.83332H5.83332V16.3333H10.2993L12.6327 18.6667H22.1667V8.16668H17.2282L15.2518 5.83332ZM9.33332 8.16668C9.97765 8.16668 10.5 8.689 10.5 9.33332V12.8333C10.4969 13.4755 9.97547 13.9944 9.33334 13.9944C8.69121 13.9944 8.16978 13.4755 8.16668 12.8333V9.33332C8.16668 8.68901 8.68901 8.16668 9.33332 8.16668Z" fill="#878A90"/>
</svg>
