<svg width="28" height="28" viewBox="0 0 28 28" fill="none" xmlns="http://www.w3.org/2000/svg">
<path fill-rule="evenodd" clip-rule="evenodd" d="M20.1985 6.1367C22.2075 8.20285 23.0685 11.0798 22.6462 13.8507C23.7354 13.8957 24.7235 14.5019 25.2572 15.4525C26.0272 16.8217 25.6952 18.5468 24.472 19.5323L24.3016 19.6607L20.783 22.1282L17.9363 23.9458C17.4453 24.259 16.8839 24.4447 16.303 24.486L16.0522 24.4954H3.5C2.87877 24.5001 2.36277 24.0172 2.32637 23.397C2.28998 22.7769 2.74597 22.2369 3.3635 22.169L3.5 22.162H16.0533C16.2305 22.1617 16.4052 22.121 16.5643 22.043L16.681 21.9788L19.4857 20.1892L22.9612 17.7508C23.3322 17.4902 23.4452 16.9908 23.2225 16.5958C23.0352 16.2636 22.6429 16.1053 22.2775 16.2143L22.1608 16.261L16.3193 19.0482C16.2017 19.104 16.0831 19.1577 15.9635 19.2092C15.8957 19.2388 15.8255 19.2622 15.7535 19.2792C15.4714 19.3781 15.1769 19.437 14.8785 19.4542L14.6825 19.46H11.417C10.8 19.4587 10.2907 18.9771 10.2548 18.3611C10.2189 17.7452 10.6689 17.2078 11.2817 17.1348L11.417 17.1267H14.6825C15.1513 17.1319 15.5426 16.7703 15.5745 16.3026C15.6065 15.8349 15.2678 15.4236 14.8027 15.365L14.6825 15.358H11.6865C11.341 15.3578 10.9999 15.2809 10.6878 15.1328C9.49668 14.5682 8.393 14.3395 7.364 14.4258C6.2895 14.5168 5.25 14.9578 4.228 15.7733C3.90226 16.0334 3.46251 16.1 3.0744 15.9479C2.68629 15.7959 2.40878 15.4483 2.3464 15.0362C2.28403 14.624 2.44626 14.2099 2.772 13.9498C3.51561 13.3445 4.35248 12.8639 5.25 12.5265C5.22646 10.1438 6.14324 7.84786 7.8015 6.1367C9.4233 4.45162 11.6613 3.49945 14 3.49945C16.3387 3.49945 18.5767 4.45162 20.1985 6.1367ZM9.4745 7.7642C8.34732 8.92763 7.67929 10.4597 7.59383 12.0773C8.80133 12.0458 10.038 12.3072 11.3003 12.8497L11.6865 13.0247H12.8485C12.8382 12.9614 12.8332 12.8974 12.8333 12.8333V9.33335C12.8333 8.68901 13.3557 8.16667 14 8.16667C14.6443 8.16667 15.1667 8.68901 15.1667 9.33335V12.8333C15.1667 12.9103 15.1597 12.9862 15.1445 13.0597C16.5349 13.2602 17.6341 14.3401 17.8593 15.7267L20.0468 14.6825L20.111 14.4923C20.839 12.145 20.2557 9.5422 18.5255 7.7642C17.3429 6.53127 15.7084 5.83424 14 5.83424C12.2916 5.83424 10.6571 6.53127 9.4745 7.7642Z" fill="#878A90"/>
</svg>
