<svg width="200" height="200" viewBox="0 0 200 200" fill="none" xmlns="http://www.w3.org/2000/svg">
<path d="M175 162.5C175 152.651 173.06 142.898 169.291 133.799C165.522 124.699 159.998 116.431 153.033 109.467C146.069 102.502 137.801 96.9781 128.701 93.209C119.602 89.4399 109.849 87.5 100 87.5L100 141.667C111.326 141.667 120.541 150.705 120.826 161.962L120.833 162.5L175 162.5Z" fill="#DBDBDB"/>
<path d="M25 162.5C25 152.651 26.9399 142.898 30.709 133.799C34.4781 124.699 40.0024 116.431 46.9668 109.467C53.9312 102.502 62.1994 96.9781 71.2988 93.209C80.3982 89.4399 90.1509 87.5 100 87.5L100 141.667C88.674 141.667 79.4592 150.705 79.1738 161.962L79.167 162.5L25 162.5Z" fill="#DBDBDB"/>
<path d="M70.8333 49.9999C70.8333 33.8916 83.8916 20.8333 99.9999 20.8333C116.108 20.8333 129.167 33.8916 129.167 49.9999C129.167 66.1082 116.108 79.1666 99.9999 79.1666C83.8916 79.1666 70.8333 66.1082 70.8333 49.9999Z" fill="#DBDBDB"/>
</svg>
