<svg width="200" height="200" viewBox="0 0 200 200" fill="none" xmlns="http://www.w3.org/2000/svg">
<path d="M175 91.6667C175 101.516 173.059 111.269 169.29 120.368C165.521 129.467 159.997 137.736 153.032 144.7C146.068 151.664 137.8 157.189 128.701 160.958C119.602 164.727 109.849 166.667 100 166.667L100 112.5C111.326 112.5 120.541 103.462 120.826 92.2048L120.833 91.6667L175 91.6667Z" fill="#DBDBDB"/>
<path d="M25.001 91.6667C25.001 101.516 26.9409 111.269 30.71 120.368C34.4791 129.467 40.0034 137.736 46.9678 144.7C53.932 151.664 62.1997 157.189 71.2988 160.958C80.3982 164.727 90.1518 166.667 100.001 166.667L100.001 112.5L100 112.5C88.674 112.5 79.4593 103.462 79.1738 92.2048L79.167 91.6668L25.001 91.6667Z" fill="#DBDBDB"/>
<path d="M175 33.3333L175 91.6666L120.833 91.6666L120.833 87.4999C120.833 57.5845 145.085 33.3333 175 33.3333Z" fill="#DBDBDB"/>
<path d="M25.0001 33.3332C54.9155 33.3333 79.1667 57.5845 79.1667 87.4999L79.1667 91.6666L25.0001 91.6666L25.0001 33.3332Z" fill="#DBDBDB"/>
</svg>
