<svg width="200" height="200" viewBox="0 0 200 200" fill="none" xmlns="http://www.w3.org/2000/svg">
<path d="M70.8333 100H129.167L129.167 175H70.8333L70.8333 100Z" fill="#DBDBDB"/>
<path d="M54.1667 25C64.0158 25 73.7685 26.9399 82.8679 30.709C91.9673 34.4781 100.236 40.0024 107.2 46.9668C114.164 53.9312 119.689 62.1994 123.458 71.2988C127.227 80.3982 129.167 90.1509 129.167 100H70.8337C70.8337 90.7953 63.3715 83.333 54.1667 83.333V25Z" fill="#DBDBDB"/>
<path d="M145.833 41.6667C135.984 41.6667 126.231 43.6067 117.132 47.3757C108.033 51.1448 99.7644 56.6692 92.8 63.6335C85.8356 70.5979 80.3113 78.8661 76.5422 87.9656C72.7731 97.065 70.8332 106.818 70.8332 116.667L129.166 116.667C129.166 107.462 136.628 99.9998 145.833 99.9998L145.833 41.6667Z" fill="#DBDBDB"/>
<path d="M29.1667 25H54.1667V83.3333C40.3596 83.3333 29.1667 72.1404 29.1667 58.3333V25Z" fill="#DBDBDB"/>
<path d="M145.833 41.6667H170.833V75.0001C170.833 88.8072 159.64 100 145.833 100V41.6667Z" fill="#DBDBDB"/>
</svg>
