<svg width="200" height="200" viewBox="0 0 200 200" fill="none" xmlns="http://www.w3.org/2000/svg">
<path fill-rule="evenodd" clip-rule="evenodd" d="M156.248 99.9965C156.248 89.6189 164.644 81.2122 175 81.2122V24.8381H174.027C136.707 24.8381 105.759 52.1633 100 87.9305C94.2335 52.1633 63.286 24.8381 25.9658 24.8381H25V81.2122C35.3558 81.2122 43.7447 89.6189 43.7447 99.9965C43.7447 110.381 35.3558 118.788 25 118.788V175.162H25.9658C63.286 175.162 94.2335 147.837 100 112.063C105.759 147.837 136.707 175.162 174.027 175.162H175V118.788C164.644 118.788 156.248 110.381 156.248 99.9965Z" fill="#DBDBDB"/>
</svg>
